<mxfile host="app.diagrams.net" modified="2022-02-05T06:52:26.172Z" agent="5.0 (Macintosh; Intel Mac OS X 10_14_6) AppleWebKit/537.36 (KHTML, like Gecko) Chrome/97.0.4692.99 Safari/537.36" etag="aHpY3Bhy4B_LSREcwCpT" version="16.4.6" type="github">
  <diagram id="C5RBs43oDa-KdzZeNtuy" name="Page-1">
    <mxGraphModel dx="1129" dy="557" grid="1" gridSize="10" guides="1" tooltips="1" connect="1" arrows="1" fold="1" page="1" pageScale="1" pageWidth="827" pageHeight="1169" math="0" shadow="0">
      <root>
        <mxCell id="WIyWlLk6GJQsqaUBKTNV-0" />
        <mxCell id="WIyWlLk6GJQsqaUBKTNV-1" parent="WIyWlLk6GJQsqaUBKTNV-0" />
        <mxCell id="4xCX12L7EcoQOhcVFHO0-2" value="" style="edgeStyle=orthogonalEdgeStyle;rounded=0;orthogonalLoop=1;jettySize=auto;html=1;" edge="1" parent="WIyWlLk6GJQsqaUBKTNV-1" source="WIyWlLk6GJQsqaUBKTNV-3" target="WIyWlLk6GJQsqaUBKTNV-7">
          <mxGeometry relative="1" as="geometry" />
        </mxCell>
        <mxCell id="4xCX12L7EcoQOhcVFHO0-10" value="" style="edgeStyle=orthogonalEdgeStyle;rounded=0;orthogonalLoop=1;jettySize=auto;html=1;" edge="1" parent="WIyWlLk6GJQsqaUBKTNV-1" source="WIyWlLk6GJQsqaUBKTNV-3" target="4xCX12L7EcoQOhcVFHO0-9">
          <mxGeometry relative="1" as="geometry" />
        </mxCell>
        <mxCell id="WIyWlLk6GJQsqaUBKTNV-3" value="lsquic_global_init" style="rounded=1;whiteSpace=wrap;html=1;fontSize=12;glass=0;strokeWidth=1;shadow=0;fillColor=#d5e8d4;strokeColor=#82b366;" parent="WIyWlLk6GJQsqaUBKTNV-1" vertex="1">
          <mxGeometry x="160" y="162" width="130" height="40" as="geometry" />
        </mxCell>
        <mxCell id="4xCX12L7EcoQOhcVFHO0-6" value="" style="edgeStyle=orthogonalEdgeStyle;rounded=0;orthogonalLoop=1;jettySize=auto;html=1;" edge="1" parent="WIyWlLk6GJQsqaUBKTNV-1" source="WIyWlLk6GJQsqaUBKTNV-7" target="4xCX12L7EcoQOhcVFHO0-5">
          <mxGeometry relative="1" as="geometry">
            <Array as="points">
              <mxPoint x="535" y="182" />
            </Array>
          </mxGeometry>
        </mxCell>
        <mxCell id="WIyWlLk6GJQsqaUBKTNV-7" value="lsquic_handshake_init" style="rounded=1;whiteSpace=wrap;html=1;fontSize=12;glass=0;strokeWidth=1;shadow=0;" parent="WIyWlLk6GJQsqaUBKTNV-1" vertex="1">
          <mxGeometry x="349" y="162" width="130" height="40" as="geometry" />
        </mxCell>
        <mxCell id="4xCX12L7EcoQOhcVFHO0-8" value="" style="edgeStyle=orthogonalEdgeStyle;rounded=0;orthogonalLoop=1;jettySize=auto;html=1;" edge="1" parent="WIyWlLk6GJQsqaUBKTNV-1" source="4xCX12L7EcoQOhcVFHO0-5" target="4xCX12L7EcoQOhcVFHO0-7">
          <mxGeometry relative="1" as="geometry" />
        </mxCell>
        <mxCell id="4xCX12L7EcoQOhcVFHO0-5" value="lsquic_crypto_init" style="rounded=1;whiteSpace=wrap;html=1;fontSize=12;glass=0;strokeWidth=1;shadow=0;" vertex="1" parent="WIyWlLk6GJQsqaUBKTNV-1">
          <mxGeometry x="470" y="282" width="130" height="40" as="geometry" />
        </mxCell>
        <mxCell id="4xCX12L7EcoQOhcVFHO0-7" value="lsquic_crt_init" style="rounded=1;whiteSpace=wrap;html=1;fontSize=12;glass=0;strokeWidth=1;shadow=0;" vertex="1" parent="WIyWlLk6GJQsqaUBKTNV-1">
          <mxGeometry x="470" y="392" width="130" height="40" as="geometry" />
        </mxCell>
        <mxCell id="4xCX12L7EcoQOhcVFHO0-25" value="" style="edgeStyle=orthogonalEdgeStyle;rounded=0;orthogonalLoop=1;jettySize=auto;html=1;shadow=0;fontColor=#1A1A1A;" edge="1" parent="WIyWlLk6GJQsqaUBKTNV-1" source="4xCX12L7EcoQOhcVFHO0-9" target="4xCX12L7EcoQOhcVFHO0-24">
          <mxGeometry relative="1" as="geometry" />
        </mxCell>
        <mxCell id="4xCX12L7EcoQOhcVFHO0-9" value="lsquic_engine_new" style="rounded=1;whiteSpace=wrap;html=1;fontSize=12;glass=0;strokeWidth=1;shadow=0;fillColor=#d5e8d4;strokeColor=#82b366;" vertex="1" parent="WIyWlLk6GJQsqaUBKTNV-1">
          <mxGeometry x="130" y="282" width="190" height="40" as="geometry" />
        </mxCell>
        <mxCell id="4xCX12L7EcoQOhcVFHO0-22" value="" style="edgeStyle=orthogonalEdgeStyle;rounded=0;orthogonalLoop=1;jettySize=auto;html=1;shadow=0;" edge="1" parent="WIyWlLk6GJQsqaUBKTNV-1" source="4xCX12L7EcoQOhcVFHO0-15" target="4xCX12L7EcoQOhcVFHO0-21">
          <mxGeometry relative="1" as="geometry" />
        </mxCell>
        <mxCell id="4xCX12L7EcoQOhcVFHO0-15" value="lsquic_engine_init_settings" style="rounded=1;whiteSpace=wrap;html=1;fontSize=12;glass=0;strokeWidth=1;shadow=0;fillColor=#d5e8d4;strokeColor=#82b366;" vertex="1" parent="WIyWlLk6GJQsqaUBKTNV-1">
          <mxGeometry x="150" y="10" width="150" height="40" as="geometry" />
        </mxCell>
        <mxCell id="4xCX12L7EcoQOhcVFHO0-23" value="" style="edgeStyle=orthogonalEdgeStyle;rounded=0;orthogonalLoop=1;jettySize=auto;html=1;shadow=0;" edge="1" parent="WIyWlLk6GJQsqaUBKTNV-1" source="4xCX12L7EcoQOhcVFHO0-21" target="WIyWlLk6GJQsqaUBKTNV-3">
          <mxGeometry relative="1" as="geometry" />
        </mxCell>
        <mxCell id="4xCX12L7EcoQOhcVFHO0-21" value="&lt;font color=&quot;#1a1a1a&quot;&gt;lsquic_engine_settings callback&lt;/font&gt;" style="rounded=1;whiteSpace=wrap;html=1;fontSize=12;glass=0;strokeWidth=1;shadow=0;fillColor=#FF0080;strokeColor=#b85450;" vertex="1" parent="WIyWlLk6GJQsqaUBKTNV-1">
          <mxGeometry x="150" y="90" width="150" height="40" as="geometry" />
        </mxCell>
        <mxCell id="4xCX12L7EcoQOhcVFHO0-27" value="" style="edgeStyle=orthogonalEdgeStyle;rounded=0;orthogonalLoop=1;jettySize=auto;html=1;shadow=0;fontColor=#1A1A1A;" edge="1" parent="WIyWlLk6GJQsqaUBKTNV-1" source="4xCX12L7EcoQOhcVFHO0-24" target="4xCX12L7EcoQOhcVFHO0-26">
          <mxGeometry relative="1" as="geometry" />
        </mxCell>
        <mxCell id="4xCX12L7EcoQOhcVFHO0-24" value="connect (user)" style="rounded=1;whiteSpace=wrap;html=1;fontSize=12;glass=0;strokeWidth=1;shadow=0;fillColor=#FF3333;strokeColor=#d79b00;" vertex="1" parent="WIyWlLk6GJQsqaUBKTNV-1">
          <mxGeometry x="130" y="402" width="190" height="40" as="geometry" />
        </mxCell>
        <mxCell id="4xCX12L7EcoQOhcVFHO0-29" value="" style="edgeStyle=orthogonalEdgeStyle;rounded=0;orthogonalLoop=1;jettySize=auto;html=1;shadow=0;fontColor=#1A1A1A;" edge="1" parent="WIyWlLk6GJQsqaUBKTNV-1" source="4xCX12L7EcoQOhcVFHO0-26" target="4xCX12L7EcoQOhcVFHO0-28">
          <mxGeometry relative="1" as="geometry" />
        </mxCell>
        <mxCell id="4xCX12L7EcoQOhcVFHO0-26" value="read (user)" style="rounded=1;whiteSpace=wrap;html=1;fontSize=12;glass=0;strokeWidth=1;shadow=0;fillColor=#FF3333;strokeColor=#d79b00;" vertex="1" parent="WIyWlLk6GJQsqaUBKTNV-1">
          <mxGeometry x="130" y="522" width="190" height="40" as="geometry" />
        </mxCell>
        <mxCell id="4xCX12L7EcoQOhcVFHO0-31" value="" style="edgeStyle=orthogonalEdgeStyle;rounded=0;orthogonalLoop=1;jettySize=auto;html=1;shadow=0;fontColor=#1A1A1A;" edge="1" parent="WIyWlLk6GJQsqaUBKTNV-1" source="4xCX12L7EcoQOhcVFHO0-28" target="4xCX12L7EcoQOhcVFHO0-30">
          <mxGeometry relative="1" as="geometry" />
        </mxCell>
        <mxCell id="4xCX12L7EcoQOhcVFHO0-28" value="lsquic_engine_packet_in" style="rounded=1;whiteSpace=wrap;html=1;fontSize=12;glass=0;strokeWidth=1;shadow=0;fillColor=#CCFF99;strokeColor=#d79b00;" vertex="1" parent="WIyWlLk6GJQsqaUBKTNV-1">
          <mxGeometry x="130" y="642" width="190" height="40" as="geometry" />
        </mxCell>
        <mxCell id="4xCX12L7EcoQOhcVFHO0-33" value="" style="edgeStyle=orthogonalEdgeStyle;rounded=0;orthogonalLoop=1;jettySize=auto;html=1;shadow=0;fontColor=#1A1A1A;" edge="1" parent="WIyWlLk6GJQsqaUBKTNV-1" source="4xCX12L7EcoQOhcVFHO0-30" target="4xCX12L7EcoQOhcVFHO0-32">
          <mxGeometry relative="1" as="geometry" />
        </mxCell>
        <mxCell id="4xCX12L7EcoQOhcVFHO0-35" value="" style="edgeStyle=orthogonalEdgeStyle;rounded=0;orthogonalLoop=1;jettySize=auto;html=1;shadow=0;fontColor=#1A1A1A;" edge="1" parent="WIyWlLk6GJQsqaUBKTNV-1" source="4xCX12L7EcoQOhcVFHO0-30" target="4xCX12L7EcoQOhcVFHO0-34">
          <mxGeometry relative="1" as="geometry" />
        </mxCell>
        <mxCell id="4xCX12L7EcoQOhcVFHO0-30" value="lsquic_engine_process_conns" style="rounded=1;whiteSpace=wrap;html=1;fontSize=12;glass=0;strokeWidth=1;shadow=0;fillColor=#CCFF99;strokeColor=#d79b00;" vertex="1" parent="WIyWlLk6GJQsqaUBKTNV-1">
          <mxGeometry x="130" y="762" width="190" height="40" as="geometry" />
        </mxCell>
        <mxCell id="4xCX12L7EcoQOhcVFHO0-32" value="process_connections" style="rounded=1;whiteSpace=wrap;html=1;fontSize=12;glass=0;strokeWidth=1;shadow=0;fillColor=#CCFF99;strokeColor=#d79b00;" vertex="1" parent="WIyWlLk6GJQsqaUBKTNV-1">
          <mxGeometry x="400" y="762" width="190" height="40" as="geometry" />
        </mxCell>
        <mxCell id="4xCX12L7EcoQOhcVFHO0-40" value="" style="edgeStyle=orthogonalEdgeStyle;rounded=0;orthogonalLoop=1;jettySize=auto;html=1;shadow=0;fontColor=#1A1A1A;" edge="1" parent="WIyWlLk6GJQsqaUBKTNV-1" source="4xCX12L7EcoQOhcVFHO0-34" target="4xCX12L7EcoQOhcVFHO0-38">
          <mxGeometry relative="1" as="geometry" />
        </mxCell>
        <mxCell id="4xCX12L7EcoQOhcVFHO0-34" value="lsquic_engine_earliest_adv_tick" style="rounded=1;whiteSpace=wrap;html=1;fontSize=12;glass=0;strokeWidth=1;shadow=0;fillColor=#CCFF99;strokeColor=#d79b00;" vertex="1" parent="WIyWlLk6GJQsqaUBKTNV-1">
          <mxGeometry x="130" y="882" width="190" height="40" as="geometry" />
        </mxCell>
        <mxCell id="4xCX12L7EcoQOhcVFHO0-36" value="lsquic_engine_connect" style="rounded=1;whiteSpace=wrap;html=1;fontSize=12;glass=0;strokeWidth=1;shadow=0;fillColor=#f8cecc;strokeColor=#b85450;" vertex="1" parent="WIyWlLk6GJQsqaUBKTNV-1">
          <mxGeometry x="380" y="980" width="190" height="40" as="geometry" />
        </mxCell>
        <mxCell id="4xCX12L7EcoQOhcVFHO0-41" value="" style="edgeStyle=orthogonalEdgeStyle;rounded=0;orthogonalLoop=1;jettySize=auto;html=1;shadow=0;fontColor=#1A1A1A;" edge="1" parent="WIyWlLk6GJQsqaUBKTNV-1" source="4xCX12L7EcoQOhcVFHO0-38" target="4xCX12L7EcoQOhcVFHO0-36">
          <mxGeometry relative="1" as="geometry" />
        </mxCell>
        <mxCell id="4xCX12L7EcoQOhcVFHO0-38" value="create_connections" style="rounded=1;whiteSpace=wrap;html=1;fontSize=12;glass=0;strokeWidth=1;shadow=0;fillColor=#FF6666;strokeColor=#b85450;" vertex="1" parent="WIyWlLk6GJQsqaUBKTNV-1">
          <mxGeometry x="130" y="980" width="190" height="40" as="geometry" />
        </mxCell>
      </root>
    </mxGraphModel>
  </diagram>
</mxfile>
